<svg width="102" height="20" viewBox="0 0 102 20" fill="none" xmlns="http://www.w3.org/2000/svg">
<path d="M17.6922 19H15.3714L13.9607 3.86921L8.38621 17.9534H8.2952L2.12912 4.43804L1.49203 11.7418C1.34034 13.2738 1.2645 14.7376 1.2645 16.1331C1.2645 17.1949 1.31001 18.1506 1.40102 19H0.0358348C0.415053 17.3163 0.748764 14.8893 1.03697 11.719L1.76507 3.57342L1.2645 2.50403V2.43577H3.76734L9.25083 14.6087L14.0517 2.43577H16.145L17.6922 19ZM21.0714 4.75658L19.5242 3.20937L21.0714 1.66216L22.6186 3.20937L21.0714 4.75658ZM20.002 19V7.28217L22.0498 6.66784H22.1408V19H20.002ZM35.2885 10.9454V19H33.127V10.8999C33.127 10.0201 32.9677 9.23135 32.6492 8.53359C32.3306 7.82066 31.6025 7.4642 30.4649 7.4642C29.2514 7.4642 28.091 8.00268 26.9836 9.07966V19H24.8221V7.28217L26.8926 6.66784H26.9836V8.6246C28.3792 7.30492 29.8505 6.64508 31.3977 6.64508C33.9916 6.64508 35.2885 8.07853 35.2885 10.9454ZM49.0834 18.5677L47.0584 19.2048L46.4668 17.339C45.2685 18.6284 43.9109 19.273 42.394 19.273C40.9227 19.273 39.6864 18.6966 38.6853 17.5438C37.6993 16.391 37.2063 14.9348 37.2063 13.1752C37.176 11.3246 37.7448 9.76984 38.9128 8.51084C40.0808 7.23666 41.4688 6.61475 43.0766 6.64508C44.3811 6.64508 45.496 7.06222 46.4213 7.8965V1.25261L48.4919 0.570016H48.5829V16.9295L49.0834 18.5677ZM46.4213 16.8157V9.32995C46.1331 8.63219 45.7084 8.07853 45.1472 7.66897C44.5859 7.24425 43.964 7.03189 43.2814 7.03189C42.1438 7.03189 41.2336 7.57038 40.551 8.64736C39.8685 9.70916 39.5272 11.1426 39.5272 12.9477C39.5272 14.7224 39.8457 16.0952 40.4828 17.066C41.1199 18.0368 41.9921 18.5222 43.0994 18.5222C44.3129 18.5222 45.4202 17.9534 46.4213 16.8157Z" fill="#1F483B"/>
<path d="M55.5419 10.8544C55.5116 8.29089 56.3004 6.19761 57.9083 4.57456C59.5313 2.93634 61.5487 2.13239 63.9606 2.16273C65.2044 2.16273 66.3724 2.40543 67.4645 2.89083C68.5719 3.37623 69.4744 4.0209 70.1722 4.82484L69.0345 5.84873C68.4126 4.81726 67.6466 4.00573 66.7364 3.41415C65.8415 2.82257 64.8783 2.52678 63.8468 2.52678C62.1479 2.52678 60.76 3.26246 59.683 4.73383C58.6212 6.20519 58.0903 8.05578 58.0903 10.2856C58.0903 12.7277 58.6894 14.6693 59.8878 16.1104C61.0861 17.5514 62.6257 18.2719 64.5066 18.2719C66.9185 18.2719 68.7918 17.2328 70.1267 15.1547L70.3997 15.314C68.7766 17.9534 66.471 19.273 63.4828 19.273C61.1771 19.273 59.2734 18.4918 57.7717 16.9295C56.2852 15.3671 55.5419 13.3421 55.5419 10.8544ZM82.1209 18.4539V18.5904C81.5141 18.9697 80.8846 19.1593 80.2324 19.1593C79.1251 19.1593 78.5259 18.598 78.4349 17.4755C77.1759 18.6435 75.7728 19.2275 74.2256 19.2275C73.27 19.2275 72.4963 18.9697 71.9048 18.4539C71.3284 17.9382 71.0402 17.2632 71.0402 16.4289C71.0402 15.3974 71.4952 14.5556 72.4053 13.9033C73.3155 13.2359 74.5745 12.8188 76.1823 12.6519L77.5475 12.5154L78.4121 12.4471V11.1502C78.4121 9.89119 78.1846 8.95073 77.7296 8.32881C77.2745 7.70689 76.5312 7.39594 75.4998 7.39594C74.3166 7.39594 73.1789 7.851 72.0868 8.76112L71.882 8.51084C72.5798 7.85858 73.27 7.38835 73.9525 7.10015C74.6503 6.79677 75.4467 6.64508 76.3416 6.64508C79.163 6.64508 80.5737 8.07853 80.5737 10.9454V16.7702C80.5737 17.468 80.6344 17.9306 80.7557 18.1581C80.8771 18.3857 81.188 18.4994 81.6886 18.4994C81.7341 18.4994 81.8782 18.4843 82.1209 18.4539ZM78.4121 17.0432V12.7884C76.6374 12.9856 75.3177 13.3345 74.4531 13.8351C73.6037 14.3205 73.1789 15.0637 73.1789 16.0649C73.1789 16.8081 73.3837 17.3845 73.7933 17.7941C74.2028 18.2036 74.7413 18.4084 75.4087 18.4084C76.4706 18.4084 77.4717 17.9534 78.4121 17.0432ZM90.4876 6.82711L89.8505 8.51084C89.441 8.32881 89.0238 8.2378 88.5991 8.2378C88.0075 8.2378 87.4539 8.42741 86.9381 8.80663C86.4376 9.18584 86.0432 9.694 85.755 10.3311V19H83.5934V7.28217L85.6185 6.66784H85.7095V9.67124C86.1342 8.71561 86.6651 7.97993 87.3022 7.4642C87.9393 6.94846 88.6446 6.69059 89.4182 6.69059C89.7671 6.69059 90.1236 6.7361 90.4876 6.82711ZM101.191 12.1058H92.4542V12.5154C92.4542 14.3205 92.8485 15.7387 93.6373 16.7702C94.4413 17.7865 95.4803 18.2947 96.7545 18.2947C97.5129 18.2947 98.2486 18.105 98.9615 17.7258C99.6896 17.3466 100.296 16.8081 100.782 16.1104L101.055 16.2696C99.7503 18.2719 98.0059 19.273 95.8216 19.273C94.1682 19.273 92.8106 18.7118 91.7488 17.5893C90.687 16.4517 90.1561 14.9727 90.1561 13.1525C90.1561 11.226 90.7325 9.66366 91.8853 8.46533C93.0382 7.25183 94.5019 6.64508 96.2767 6.64508C97.8542 6.64508 99.0753 7.13807 99.9399 8.12403C100.805 9.11 101.222 10.4373 101.191 12.1058ZM92.4769 11.7418H99.1208C99.1815 10.3159 98.9312 9.17068 98.37 8.30606C97.8239 7.42627 97.0655 6.98638 96.0947 6.98638C95.1087 6.98638 94.2896 7.42627 93.6373 8.30606C92.9851 9.17068 92.5983 10.3159 92.4769 11.7418Z" fill="#15201C"/>
</svg>
